<svg xmlns="http://www.w3.org/2000/svg" xmlns:xlink="http://www.w3.org/1999/xlink" width="500" zoomAndPan="magnify" viewBox="0 0 375 374.999991" height="500" preserveAspectRatio="xMidYMid meet" version="1.0"><defs><g/><clipPath id="989292142d"><path d="M 0.421875 0.421875 L 375 0.421875 L 375 375 L 0.421875 375 Z M 0.421875 0.421875 " clip-rule="nonzero"/></clipPath><clipPath id="85d9f06f7a"><path d="M 17.671875 0.421875 L 357.75 0.421875 C 362.324219 0.421875 366.710938 2.242188 369.949219 5.476562 C 373.183594 8.710938 375 13.097656 375 17.671875 L 375 357.75 C 375 362.324219 373.183594 366.710938 369.949219 369.949219 C 366.710938 373.183594 362.324219 375 357.75 375 L 17.671875 375 C 13.097656 375 8.710938 373.183594 5.476562 369.949219 C 2.242188 366.710938 0.421875 362.324219 0.421875 357.75 L 0.421875 17.671875 C 0.421875 13.097656 2.242188 8.710938 5.476562 5.476562 C 8.710938 2.242188 13.097656 0.421875 17.671875 0.421875 Z M 17.671875 0.421875 " clip-rule="nonzero"/></clipPath><clipPath id="c1c1b5a2aa"><path d="M 18 124 L 357 124 L 357 220 L 18 220 Z M 18 124 " clip-rule="nonzero"/></clipPath><clipPath id="e6a19b423b"><path d="M 14.472656 140.238281 L 355.921875 120.828125 L 360.859375 207.6875 L 19.410156 227.097656 Z M 14.472656 140.238281 " clip-rule="nonzero"/></clipPath><clipPath id="534fed696c"><path d="M 19.398438 226.898438 L 360.847656 207.488281 L 355.910156 120.628906 L 14.460938 140.039062 Z M 19.398438 226.898438 " clip-rule="nonzero"/></clipPath><clipPath id="d7ea5cd3f3"><path d="M 19.398438 226.898438 L 360.847656 207.488281 L 355.910156 120.628906 L 14.460938 140.039062 Z M 19.398438 226.898438 " clip-rule="nonzero"/></clipPath></defs><g clip-path="url(#989292142d)"><g clip-path="url(#85d9f06f7a)"><path fill="#50a6e4" d="M 0.421875 0.421875 L 375 0.421875 L 375 375 L 0.421875 375 Z M 0.421875 0.421875 " fill-opacity="1" fill-rule="nonzero"/></g></g><g fill="#0b59b6" fill-opacity="1"><g transform="translate(214.139551, 273.241955)"><g><path d="M 70.953125 -171.492188 L 5.574219 -171.492188 L 5.574219 -163.128906 L 25.722656 -163.128906 L 25.722656 0 L 50.589844 0 L 50.589844 -163.128906 L 70.953125 -163.128906 Z M 70.953125 -171.492188 "/></g></g></g><g clip-path="url(#c1c1b5a2aa)"><g clip-path="url(#e6a19b423b)"><g clip-path="url(#534fed696c)"><g clip-path="url(#d7ea5cd3f3)"><path fill="#ffffff" d="M 317.957031 148.671875 C 312.398438 151.722656 306.953125 155.003906 301.261719 157.777344 C 248.234375 183.574219 192.472656 198.65625 133.351562 200.714844 C 110.554688 201.503906 88.039062 200.136719 65.875 194.4375 C 51.046875 190.625 37.214844 184.910156 25.9375 174.105469 C 25.417969 173.601562 24.710938 173.304688 24.144531 172.957031 C 17.988281 177.621094 16.960938 185.175781 21.71875 190.652344 C 28.007812 197.90625 36.042969 202.742188 44.679688 206.511719 C 65.0625 215.402344 86.617188 218.855469 108.660156 219.84375 C 117.308594 217.632812 125.996094 220.019531 134.671875 219.644531 C 143.425781 219.277344 152.214844 219.246094 160.960938 218.734375 C 189.335938 217.082031 216.941406 211.25 244.148438 203.226562 C 268.457031 196.058594 291.785156 186.574219 314.113281 174.589844 C 314.492188 174.386719 314.929688 174.308594 315.976562 173.953125 C 315.144531 176.710938 313.554688 178.46875 312.183594 180.226562 C 309.738281 183.363281 308.597656 186.191406 311.4375 189.941406 C 312.8125 191.753906 312.980469 194.480469 316.023438 195.414062 C 316.792969 194.71875 317.765625 194.039062 318.484375 193.136719 C 330.457031 178.09375 342.421875 163.050781 354.328125 147.957031 C 357.128906 144.398438 357.042969 143.296875 354.511719 139.476562 C 354.027344 138.75 353.566406 137.980469 353.285156 137.160156 C 351.5 132.011719 348.089844 129.871094 342.730469 129.851562 C 329.585938 129.789062 316.441406 129.570312 303.308594 129.25 C 300 129.164062 296.65625 128.648438 293.441406 127.882812 C 290.59375 127.195312 287.894531 125.890625 284.902344 124.769531 C 283.703125 128.773438 285.875 132 288.035156 135.265625 C 291.777344 140.917969 297.171875 143.910156 303.675781 145.117188 C 308.378906 145.984375 313.09375 146.835938 317.808594 147.6875 C 317.839844 148.011719 317.898438 148.335938 317.957031 148.671875 Z M 317.957031 148.671875 " fill-opacity="1" fill-rule="nonzero"/></g></g></g></g><g fill="#0b59b6" fill-opacity="1"><g transform="translate(57.27159, 273.389045)"><g><path d="M 57.449219 -171.492188 L 19.292969 -171.492188 C 11.574219 -171.492188 5.574219 -165.273438 5.574219 -157.773438 L 5.574219 -13.71875 C 5.574219 -6.214844 11.574219 0 19.292969 0 L 57.449219 0 C 64.953125 0 71.167969 -6.214844 71.167969 -13.71875 L 71.167969 -157.773438 C 71.167969 -165.273438 64.953125 -171.492188 57.449219 -171.492188 Z M 60.234375 -18.222656 C 60.234375 -13.71875 56.59375 -9.859375 51.875 -9.859375 L 37.726562 -9.859375 C 33.226562 -9.859375 29.367188 -13.71875 29.367188 -18.222656 L 29.367188 -153.269531 C 29.367188 -157.773438 33.226562 -161.628906 37.726562 -161.628906 L 51.875 -161.628906 C 56.59375 -161.628906 60.234375 -157.773438 60.234375 -153.269531 Z M 60.234375 -18.222656 "/></g></g></g><g fill="#0b59b6" fill-opacity="1"><g transform="translate(131.924645, 274.173889)"><g><path d="M 76.097656 -171.492188 L 66.667969 -171.492188 C 66.238281 -171.492188 65.808594 -171.0625 65.808594 -170.847656 L 65.808594 -18.222656 C 65.808594 -13.71875 62.164062 -9.859375 57.449219 -9.859375 L 43.300781 -9.859375 C 38.800781 -9.859375 34.941406 -13.71875 34.941406 -18.222656 L 34.941406 -170.847656 C 34.941406 -171.0625 34.726562 -171.492188 34.296875 -171.492188 L 11.789062 -171.492188 C 11.359375 -171.492188 11.148438 -171.0625 11.148438 -170.847656 L 11.148438 -13.71875 C 11.148438 -6.214844 17.148438 0 24.867188 0 L 63.023438 0 C 70.527344 0 76.742188 -6.214844 76.742188 -13.71875 L 76.742188 -170.847656 C 76.742188 -171.0625 76.3125 -171.492188 76.097656 -171.492188 Z M 76.097656 -171.492188 "/></g></g></g></svg>