<svg xmlns="http://www.w3.org/2000/svg" xmlns:xlink="http://www.w3.org/1999/xlink" width="500" zoomAndPan="magnify" viewBox="0 0 375 374.999991" height="500" preserveAspectRatio="xMidYMid meet" version="1.0"><defs><g/><clipPath id="51ab6f9920"><path d="M 31 126 L 348 126 L 348 259 L 31 259 Z M 31 126 " clip-rule="nonzero"/></clipPath><clipPath id="d99aa02bb1"><path d="M 28.03125 216.671875 L 337.5 104.265625 L 369.25 191.679688 L 59.78125 304.085938 Z M 28.03125 216.671875 " clip-rule="nonzero"/></clipPath><clipPath id="d9dfcaf748"><path d="M 28.03125 216.671875 L 337.5 104.265625 L 369.25 191.679688 L 59.78125 304.085938 Z M 28.03125 216.671875 " clip-rule="nonzero"/></clipPath><clipPath id="3eb7a90c8f"><path d="M 89 239 L 91 239 L 91 240 L 89 240 Z M 89 239 " clip-rule="nonzero"/></clipPath><clipPath id="fe32bd044f"><path d="M 28.03125 216.671875 L 337.5 104.265625 L 369.25 191.679688 L 59.78125 304.085938 Z M 28.03125 216.671875 " clip-rule="nonzero"/></clipPath><clipPath id="5aa9743b2a"><path d="M 28.03125 216.671875 L 337.5 104.265625 L 369.25 191.679688 L 59.78125 304.085938 Z M 28.03125 216.671875 " clip-rule="nonzero"/></clipPath></defs><g clip-path="url(#51ab6f9920)"><g clip-path="url(#d99aa02bb1)"><g clip-path="url(#d9dfcaf748)"><path fill="#032b91" d="M 33.863281 217.433594 C 33.785156 217.707031 33.847656 217.957031 34.042969 218.171875 C 33.683594 219.105469 32.0625 219.074219 32.296875 220.464844 C 30.964844 223.296875 32.523438 225.128906 34.523438 226.777344 C 40.136719 231.378906 46.382812 234.96875 52.855469 238.183594 C 76.039062 249.667969 100.554688 255.78125 126.40625 257.605469 C 171.535156 260.808594 212.496094 248.640625 250.527344 225.257812 C 268.15625 214.417969 283.566406 200.703125 298.335938 186.273438 C 307.019531 177.792969 315.160156 168.816406 323.523438 160.035156 C 323.6875 159.585938 323.835938 159.144531 323.996094 158.695312 C 324.492188 158.488281 324.992188 158.113281 325.472656 158.148438 C 325.472656 158.148438 325.472656 158.148438 325.488281 158.152344 C 325.863281 158.1875 325.8125 158.722656 325.511719 159.039062 C 324.984375 163.769531 323.480469 168.234375 321.738281 172.613281 C 320.546875 175.613281 319.609375 178.613281 319.597656 181.859375 C 316.980469 188.292969 318.714844 193.539062 324.25 196.636719 C 334.707031 187.535156 338.621094 175.207031 341.574219 162.347656 C 342.679688 157.5625 344.097656 152.871094 345.445312 148.15625 C 348.6875 136.863281 347.578125 138.316406 341 131.382812 C 339.53125 129.828125 337.722656 128.640625 335.808594 127.652344 C 335.105469 127.285156 334.421875 127.015625 333.632812 127.300781 C 331.855469 125.625 329.921875 126.300781 328.066406 127.054688 C 322.5625 129.285156 317.09375 131.582031 311.605469 133.863281 C 310.203125 133.644531 309.058594 134.28125 307.9375 134.976562 C 306.542969 134.703125 305.394531 135.367188 304.238281 135.96875 C 303.28125 135.617188 302.445312 136.179688 301.570312 136.367188 C 289.660156 138.890625 277.636719 140.039062 265.457031 139.136719 C 264.535156 139.066406 263.617188 139.078125 262.699219 139.046875 C 261.605469 139.003906 260.367188 138.949219 259.9375 140.117188 C 259.609375 141 260.214844 142.167969 260.921875 142.546875 C 264.050781 144.234375 265.636719 147.5625 268.519531 149.460938 C 269.796875 150.304688 271.316406 150.558594 272.863281 150.789062 C 284.796875 152.613281 296.726562 152.273438 308.648438 150.71875 C 309.714844 150.578125 310.78125 150.269531 311.835938 150.351562 C 313.066406 150.449219 313.09375 151.453125 312.851562 152.433594 C 311.65625 152.710938 311.007812 153.464844 310.84375 154.65625 C 309.808594 155.121094 308.835938 155.65625 308.699219 156.964844 C 308.390625 156.933594 308.246094 157.074219 308.265625 157.378906 C 307.265625 157.796875 306.398438 158.34375 306.210938 159.539062 C 305.589844 159.972656 304.902344 160.328125 304.367188 160.859375 C 298.496094 166.648438 292.722656 172.53125 286.785156 178.253906 C 281.398438 183.453125 275.855469 188.476562 270.375 193.566406 C 268.761719 194.734375 267.113281 195.839844 265.5625 197.0625 C 250.378906 208.894531 234 218.71875 216.191406 226.070312 C 209.828125 228.691406 203.394531 231.121094 196.992188 233.628906 C 195.515625 233.386719 194.355469 234.117188 193.175781 234.832031 C 191.769531 234.566406 190.652344 235.242188 189.523438 235.914062 C 188.203125 235.5625 187.167969 236.289062 186.074219 236.816406 C 185.222656 236.503906 184.511719 236.800781 183.863281 237.332031 C 183.546875 237.242188 183.289062 237.320312 183.085938 237.589844 C 182.136719 237.257812 181.308594 237.792969 180.433594 237.957031 C 176.101562 238.738281 171.929688 240.292969 167.496094 240.542969 C 167.261719 241.003906 166.140625 241.605469 167.804688 241.6875 C 168.917969 241.75 169.078125 242.015625 168.902344 242.351562 C 168.75 242.640625 168.34375 242.984375 168.0625 243.28125 C 154.300781 245.320312 140.464844 245.679688 126.59375 245.128906 C 125.3125 244.957031 124.019531 244.792969 122.738281 244.621094 C 115.082031 243.605469 107.410156 242.589844 99.753906 241.585938 C 99.53125 241.355469 99.28125 241.238281 99.011719 241.21875 C 98.828125 241.207031 98.644531 241.234375 98.449219 241.308594 C 98.082031 240.933594 97.648438 240.859375 97.171875 241.042969 C 96.8125 240.65625 96.382812 240.578125 95.898438 240.78125 C 95.542969 240.378906 95.113281 240.300781 94.617188 240.507812 C 94.265625 240.105469 93.835938 240 93.34375 240.21875 C 93 239.796875 92.574219 239.707031 92.082031 239.921875 L 92.066406 239.914062 C 91.738281 239.503906 91.308594 239.398438 90.832031 239.613281 L 90.804688 239.609375 C 90.40625 239.480469 89.992188 239.375 89.570312 239.292969 L 89.53125 239.28125 C 89.199219 238.871094 88.792969 238.757812 88.296875 238.964844 L 88.253906 238.953125 C 87.925781 238.542969 87.519531 238.429688 87.023438 238.636719 L 86.980469 238.625 C 86.980469 238.625 86.964844 238.617188 86.964844 238.617188 C 86.964844 238.617188 86.980469 238.625 86.980469 238.625 C 86.660156 238.199219 86.242188 238.089844 85.746094 238.296875 L 85.71875 238.292969 C 85.394531 237.863281 84.980469 237.757812 84.484375 237.960938 L 84.46875 237.957031 C 84.132812 237.53125 83.714844 237.414062 83.214844 237.605469 C 79.421875 236.300781 75.636719 234.992188 71.84375 233.683594 C 69.652344 233.625 67.773438 232.554688 65.816406 231.773438 C 65.792969 231.523438 65.828125 231.304688 65.894531 231.097656 C 66 230.777344 66.1875 230.511719 66.496094 230.285156 C 65.082031 229.539062 63.722656 228.683594 62.054688 228.628906 C 61.546875 228.65625 61.050781 228.617188 60.585938 228.371094 C 61.070312 228.453125 61.558594 228.550781 62.054688 228.628906 C 61.648438 228.296875 61.230469 228.035156 60.71875 228.308594 C 60.3125 227.617188 59.679688 227.339844 58.894531 227.3125 C 58.636719 226.863281 58.277344 226.65625 57.753906 226.820312 C 57.382812 226.4375 56.976562 226.179688 56.417969 226.320312 C 56.261719 226.105469 56.070312 225.964844 55.78125 225.953125 C 54.53125 224.980469 53.148438 224.316406 51.601562 223.984375 C 50.679688 223.34375 49.777344 222.675781 48.609375 222.566406 C 48.175781 221.949219 47.480469 221.785156 46.820312 221.570312 C 43.207031 219.046875 39.148438 217.199219 35.867188 213.839844 C 35.304688 215.394531 33.554688 215.792969 33.863281 217.433594 Z M 308.722656 158.171875 C 308.714844 158.179688 308.714844 158.179688 308.703125 158.183594 C 308.707031 158.195312 308.71875 158.1875 308.71875 158.1875 C 308.707031 158.195312 308.691406 158.1875 308.691406 158.1875 C 308.691406 158.1875 308.703125 158.183594 308.703125 158.183594 C 308.699219 158.171875 308.691406 158.160156 308.675781 158.152344 C 308.703125 158.15625 308.707031 158.167969 308.722656 158.171875 Z M 85.3125 240.8125 C 85.40625 240.855469 85.5 240.902344 85.59375 240.945312 C 85.566406 240.941406 85.539062 240.9375 85.511719 240.933594 C 85.425781 240.914062 85.34375 240.894531 85.253906 240.859375 C 85.265625 240.855469 85.28125 240.835938 85.3125 240.8125 Z M 99.6875 241.609375 C 99.691406 241.621094 99.679688 241.625 99.683594 241.636719 C 99.667969 241.667969 99.671875 241.707031 99.65625 241.738281 L 99.605469 241.847656 L 99.679688 241.625 C 99.675781 241.613281 99.664062 241.617188 99.660156 241.605469 C 99.664062 241.617188 99.675781 241.613281 99.6875 241.609375 Z M 84.945312 241.128906 C 85.046875 241.039062 85.144531 240.953125 85.234375 240.882812 C 85.320312 240.902344 85.40625 240.921875 85.488281 240.945312 C 85.300781 240.921875 85.113281 240.976562 84.945312 241.128906 Z M 86.058594 241.113281 C 86.160156 241.140625 86.257812 241.167969 86.347656 241.203125 C 86.351562 241.214844 86.363281 241.210938 86.367188 241.222656 C 86.261719 241.179688 86.160156 241.140625 86.058594 241.113281 Z M 38.789062 224.164062 C 38.777344 224.167969 38.761719 224.160156 38.75 224.164062 C 38.75 224.164062 38.734375 224.160156 38.734375 224.160156 C 38.730469 224.148438 38.714844 224.140625 38.710938 224.128906 C 38.734375 224.132812 38.757812 224.148438 38.789062 224.164062 Z M 40.398438 225.277344 C 40.40625 225.300781 40.414062 225.324219 40.441406 225.328125 C 40.433594 225.304688 40.402344 225.289062 40.398438 225.277344 Z M 59.8125 228.5625 C 59.746094 228.625 59.683594 228.699219 59.625 228.796875 C 59.59375 228.746094 59.5625 228.691406 59.53125 228.636719 C 59.625 228.617188 59.71875 228.582031 59.8125 228.5625 Z M 56.84375 226.773438 C 56.683594 226.730469 56.542969 226.625 56.421875 226.472656 C 56.421875 226.472656 56.421875 226.472656 56.433594 226.46875 C 56.558594 226.605469 56.691406 226.714844 56.84375 226.773438 Z M 56.84375 226.773438 " fill-opacity="1" fill-rule="nonzero"/></g></g></g><g clip-path="url(#3eb7a90c8f)"><g clip-path="url(#fe32bd044f)"><g clip-path="url(#5aa9743b2a)"><path fill="#032b91" d="M 89.496094 239.292969 C 89.910156 239.402344 90.320312 239.5 90.726562 239.613281 C 90.390625 239.1875 89.980469 239.09375 89.496094 239.292969 Z M 89.496094 239.292969 " fill-opacity="1" fill-rule="nonzero"/></g></g></g><g fill="#1488db" fill-opacity="1"><g transform="translate(90.017372, 206.059381)"><g><path d="M 19.84375 5.410156 C 20.007812 5.410156 20.171875 5.492188 20.335938 5.492188 L 22.140625 5.492188 L 27.058594 4.183594 C 27.304688 4.183594 28.371094 3.773438 28.617188 3.691406 C 30.585938 2.871094 37.636719 -2.214844 38.292969 -3.445312 L 38.292969 -3.609375 L 44.933594 -11.726562 C 45.34375 -12.136719 45.507812 -12.957031 45.589844 -13.367188 L 45.589844 -13.777344 L 52.640625 -31.40625 C 52.96875 -31.734375 53.050781 -32.226562 53.132812 -32.964844 C 53.378906 -33.945312 53.707031 -35.339844 54.199219 -35.667969 C 54.363281 -35.75 54.527344 -35.996094 54.527344 -36.160156 L 55.347656 -41.164062 C 55.429688 -41.492188 55.429688 -41.902344 55.429688 -41.902344 C 55.675781 -42.148438 55.757812 -42.476562 55.757812 -42.558594 C 56.085938 -43.785156 56.824219 -46.492188 56.824219 -46.65625 L 56.824219 -48.296875 C 56.90625 -48.460938 57.070312 -49.035156 57.070312 -49.117188 L 57.070312 -51.25 C 57.070312 -51.578125 56.824219 -51.90625 56.496094 -51.988281 C 56.414062 -51.988281 56.167969 -52.070312 56.167969 -52.152344 L 56.167969 -55.101562 L 54.035156 -64.53125 C 53.953125 -64.859375 53.542969 -65.679688 53.132812 -66.171875 C 52.722656 -67.402344 51.742188 -68.140625 51.085938 -68.960938 L 50.429688 -69.699219 C 50.183594 -70.027344 49.28125 -70.683594 48.789062 -71.011719 L 48.871094 -70.929688 C 48.625 -71.09375 48.542969 -71.253906 48.214844 -71.335938 C 47.640625 -71.664062 47.3125 -71.664062 46.738281 -71.664062 C 46.328125 -71.664062 46 -71.664062 45.425781 -72.074219 L 41.082031 -71.175781 C 40.671875 -71.011719 38.210938 -69.535156 37.554688 -69.125 L 35.257812 -66.664062 C 33.945312 -64.777344 32.964844 -62.644531 33.128906 -60.351562 C 33.128906 -59.367188 34.027344 -59.039062 34.765625 -58.792969 L 34.847656 -58.792969 C 34.929688 -58.792969 35.09375 -58.792969 35.257812 -58.792969 C 35.667969 -58.792969 36.242188 -58.875 36.570312 -59.039062 C 36.816406 -59.203125 37.71875 -60.105469 37.882812 -60.269531 L 39.359375 -63.382812 L 41.574219 -65.515625 C 42.394531 -66.417969 43.867188 -66.5 45.015625 -66.5 C 45.015625 -66.5 45.835938 -66.335938 45.917969 -66.335938 L 47.394531 -66.335938 C 47.804688 -66.089844 48.460938 -65.1875 48.542969 -64.941406 L 48.542969 -64.859375 L 50.183594 -54.527344 L 50.183594 -51.660156 L 46.820312 -34.683594 C 43.785156 -28.699219 40.015625 -21.484375 36.898438 -15.496094 L 30.339844 -8.28125 L 30.503906 -8.363281 L 22.46875 -3.199219 L 22.058594 -2.707031 C 21.976562 -2.707031 21.894531 -2.707031 21.8125 -2.625 L 21.894531 -2.625 L 20.335938 -2.050781 C 20.5 -2.132812 19.515625 -1.96875 19.023438 -1.886719 C 18.449219 -1.722656 17.710938 -1.640625 17.464844 -1.640625 L 15.085938 -2.378906 L 15.167969 -2.296875 L 13.285156 -3.527344 L 12.710938 -4.183594 C 12.382812 -4.429688 11.152344 -5.984375 10.824219 -6.476562 L 10.332031 -7.132812 C 10.414062 -7.132812 10.25 -7.460938 10.167969 -7.707031 C 10.167969 -7.789062 9.839844 -9.59375 9.675781 -10.167969 C 9.59375 -10.578125 9.265625 -12.054688 9.265625 -12.054688 L 9.265625 -13.285156 C 9.265625 -13.367188 9.101562 -14.511719 9.019531 -15.167969 C 8.855469 -15.824219 8.773438 -16.398438 8.773438 -16.480469 L 8.773438 -22.550781 C 8.9375 -24.351562 9.183594 -26.238281 9.511719 -28.207031 C 9.757812 -29.847656 10.003906 -31.570312 10.085938 -33.128906 C 10.085938 -33.617188 10.167969 -34.847656 10.167969 -34.847656 L 10.085938 -34.683594 L 15.25 -48.871094 L 15.25 -49.117188 L 15.90625 -50.511719 C 15.90625 -50.511719 15.988281 -50.675781 16.070312 -51.003906 L 15.988281 -50.921875 L 16.234375 -51.660156 L 16.234375 -51.496094 C 18.613281 -55.429688 20.992188 -59.449219 23.371094 -63.382812 C 24.023438 -63.957031 24.597656 -64.777344 25.007812 -65.433594 C 25.253906 -65.679688 25.582031 -66.171875 25.746094 -66.5 C 28.207031 -68.796875 30.503906 -70.765625 32.964844 -73.140625 L 40.015625 -76.914062 L 46.492188 -78.0625 L 50.347656 -76.914062 C 50.429688 -76.914062 50.511719 -76.832031 50.511719 -76.832031 C 50.757812 -76.667969 51.414062 -76.09375 51.660156 -75.847656 L 51.660156 -75.929688 L 54.117188 -71.992188 C 54.9375 -70.929688 56.988281 -69.125 58.382812 -69.125 C 59.613281 -69.125 60.515625 -70.191406 60.105469 -72.15625 C 59.859375 -73.058594 59.367188 -73.960938 58.875 -74.617188 L 55.429688 -79.457031 L 53.542969 -81.339844 C 52.476562 -81.996094 49.363281 -84.210938 48.707031 -84.539062 L 43.128906 -86.34375 L 41.574219 -86.34375 C 41.246094 -86.179688 39.769531 -86.097656 39.523438 -86.097656 L 32.226562 -84.128906 L 25.335938 -80.195312 L 17.546875 -73.140625 L 9.921875 -62.890625 L 1.476562 -41.65625 L -0.65625 -23.777344 L 1.230469 -10.496094 L 1.886719 -7.871094 C 2.460938 -6.96875 4.753906 -3.035156 5.328125 -2.378906 L 5.328125 -2.460938 C 5.984375 -1.558594 8.773438 1.066406 9.347656 1.3125 L 16.152344 4.59375 C 16.644531 4.917969 18.695312 5.246094 19.84375 5.410156 Z M 53.789062 -43.375 L 53.707031 -43.210938 C 53.707031 -43.292969 53.707031 -43.292969 53.789062 -43.375 Z M 53.789062 -43.375 "/></g></g></g><g fill="#1488db" fill-opacity="1"><g transform="translate(149.874466, 206.059381)"><g><path d="M 54.527344 9.429688 C 54.609375 8.691406 55.511719 8.9375 55.511719 8.527344 L 55.511719 6.804688 C 54.855469 6.558594 55.839844 5.738281 55.511719 5.410156 L 54.035156 2.953125 L 54.035156 2.789062 C 52.886719 -0.820312 52.070312 -4.265625 52.394531 -7.953125 C 52.394531 -8.035156 52.640625 -8.363281 52.640625 -8.363281 L 52.640625 -10.414062 C 52.640625 -10.578125 52.886719 -11.234375 52.886719 -11.398438 L 52.886719 -15.414062 L 53.132812 -16.152344 C 53.214844 -16.398438 53.378906 -18.039062 53.378906 -18.449219 C 53.378906 -18.941406 53.214844 -19.1875 53.542969 -19.515625 L 55.511719 -30.339844 C 56.414062 -31.488281 56.332031 -33.210938 56.90625 -34.519531 C 56.988281 -34.683594 57.152344 -35.09375 57.152344 -35.09375 L 57.152344 -36.734375 L 56.90625 -36.488281 L 53.789062 -24.679688 L 53.542969 -24.433594 L 53.542969 -27.550781 L 58.546875 -42.964844 L 58.546875 -43.621094 L 64.449219 -55.675781 C 64.613281 -55.921875 64.859375 -56.824219 64.941406 -57.070312 C 65.597656 -58.464844 67.320312 -61.90625 67.320312 -61.90625 L 67.730469 -61.90625 L 64.285156 -54.527344 L 64.285156 -54.28125 L 62.316406 -50.265625 L 62.316406 -50.019531 C 62.644531 -49.855469 63.464844 -51.988281 63.546875 -52.152344 C 63.710938 -52.230469 64.039062 -52.722656 64.039062 -52.804688 L 70.109375 -65.433594 L 70.765625 -66.335938 L 74.945312 -74.125 L 74.945312 -75.765625 L 74.371094 -75.765625 C 74.453125 -76.667969 74.617188 -77.816406 73.878906 -78.636719 C 73.550781 -79.128906 71.828125 -80.929688 71.335938 -81.257812 C 70.191406 -81.421875 70.109375 -81.914062 69.78125 -81.914062 C 69.617188 -81.914062 69.371094 -81.75 68.714844 -81.257812 C 68.632812 -81.175781 67.320312 -80.359375 67.15625 -80.277344 C 66.992188 -80.03125 66.335938 -79.457031 66.335938 -79.292969 L 40.835938 -28.453125 L 40.34375 -28.042969 L 37.964844 -24.023438 C 38.046875 -23.777344 36.734375 -22.058594 36.488281 -21.8125 L 31.078125 -13.53125 L 30.832031 -13.285156 C 30.75 -13.203125 30.257812 -12.382812 30.175781 -12.136719 L 21.402344 -3.773438 C 21.320312 -2.789062 20.828125 -2.789062 20.171875 -2.378906 C 20.089844 -2.378906 19.351562 -1.722656 19.269531 -1.722656 C 18.777344 -1.476562 16.644531 -0.574219 16.152344 -0.328125 L 15.90625 -0.328125 C 15.90625 -0.492188 15.660156 -0.574219 15.660156 -0.574219 C 15.003906 -0.820312 14.105469 -0.902344 13.53125 -1.230469 C 13.367188 -1.394531 12.792969 -1.804688 12.792969 -1.96875 L 12.628906 -1.96875 L 11.890625 -1.230469 C 10.742188 -2.050781 10.496094 -3.9375 10.332031 -5.082031 C 10.332031 -5.410156 10.085938 -6.394531 10.085938 -6.640625 L 10.085938 -13.121094 L 13.53125 -26.320312 C 13.859375 -26.894531 14.757812 -29.847656 14.757812 -30.503906 L 26.402344 -56.824219 C 26.8125 -57.070312 27.140625 -57.644531 27.058594 -58.054688 L 28.453125 -59.941406 C 28.125 -60.597656 28.78125 -61.171875 29.027344 -61.664062 C 29.109375 -61.988281 28.78125 -62.316406 28.699219 -62.070312 L 24.269531 -54.363281 L 32.554688 -70.601562 C 32.71875 -70.683594 32.71875 -71.5 32.554688 -71.746094 C 32.144531 -73.46875 30.257812 -76.421875 28.207031 -76.667969 L 26.15625 -76.667969 L 25.910156 -76.421875 L 17.382812 -64.367188 C 17.382812 -63.792969 17.21875 -63.382812 16.808594 -63.054688 L 6.96875 -40.507812 C 6.886719 -39.605469 6.476562 -38.539062 6.066406 -37.882812 L 1.476562 -23.042969 L 0.0820312 -13.285156 L 0.0820312 -11.972656 C 0.328125 -10.25 0.902344 -5.65625 0.984375 -5.492188 L 3.199219 -0.574219 C 3.28125 -0.492188 3.855469 0.328125 4.101562 0.492188 C 4.675781 1.066406 7.296875 3.363281 7.871094 3.773438 C 8.117188 4.019531 9.347656 4.59375 9.59375 4.675781 C 9.839844 4.835938 10.90625 4.917969 10.988281 4.917969 L 11.234375 5.164062 C 11.5625 5.492188 13.121094 5.65625 13.53125 5.65625 L 13.859375 5.820312 L 17.875 4.511719 L 28.453125 -4.019531 C 30.011719 -6.3125 31.898438 -8.527344 33.945312 -10.414062 L 43.621094 -23.535156 L 43.621094 -22.46875 C 43.457031 -21.894531 43.128906 -17.464844 43.128906 -16.890625 C 42.882812 -14.675781 43.046875 -12.382812 42.882812 -10.25 C 42.882812 -10.085938 42.640625 -9.183594 42.640625 -9.101562 C 42.558594 -8.117188 42.558594 -5.492188 42.640625 -5.246094 L 44.359375 2.050781 C 44.523438 2.378906 46.246094 5.082031 46.902344 5.820312 C 47.148438 6.230469 49.117188 7.953125 49.527344 8.28125 C 49.691406 8.363281 51.167969 9.101562 51.660156 9.183594 C 52.152344 9.429688 52.886719 9.511719 53.542969 9.511719 C 53.953125 9.511719 54.28125 9.429688 54.527344 9.429688 Z M 69.863281 -66.582031 C 69.863281 -66.664062 70.191406 -67.8125 70.355469 -67.976562 C 70.4375 -68.222656 71.5 -70.109375 71.582031 -70.355469 C 71.582031 -70.519531 71.828125 -70.929688 71.828125 -71.09375 C 71.910156 -71.175781 72.648438 -72.238281 72.730469 -72.402344 L 72.730469 -72.894531 C 72.484375 -72.8125 72.402344 -72.894531 72.320312 -72.976562 C 72.484375 -73.550781 72.976562 -74.042969 73.46875 -74.371094 L 73.46875 -73.960938 L 73.632812 -73.960938 C 73.796875 -73.960938 74.207031 -74.125 74.371094 -74.125 L 69.617188 -65.433594 C 69.535156 -65.351562 69.289062 -65.1875 69.207031 -65.1875 L 69.207031 -65.433594 C 69.289062 -65.515625 69.78125 -66.5 69.863281 -66.582031 Z M 52.394531 3.199219 C 52.3125 2.542969 51.742188 -0.492188 51.660156 -1.066406 C 51.414062 -2.050781 50.921875 -3.9375 51.988281 -4.59375 L 51.988281 -3.527344 C 52.070312 -2.625 52.804688 1.394531 52.886719 2.296875 C 52.96875 2.542969 53.460938 3.773438 53.542969 4.019531 L 53.542969 4.265625 L 53.378906 4.265625 C 53.214844 4.265625 52.886719 4.101562 52.886719 4.019531 C 52.804688 3.9375 52.558594 3.363281 52.394531 3.199219 Z M 9.839844 -1.96875 C 9.757812 -2.625 9.265625 -4.511719 9.265625 -4.59375 L 9.265625 -10.660156 L 9.511719 -10.660156 C 9.347656 -9.429688 9.59375 -8.691406 9.59375 -7.378906 C 9.757812 -6.230469 9.839844 -5.246094 10.085938 -4.101562 C 10.332031 -3.363281 10.167969 -2.542969 10.742188 -1.722656 C 10.90625 -1.640625 11.5625 -0.902344 11.644531 -0.820312 C 11.808594 -0.820312 12.21875 -0.65625 12.382812 -0.574219 L 12.382812 -0.328125 C 12.300781 -0.164062 12.136719 -0.164062 12.054688 -0.164062 C 10.90625 -0.164062 10.167969 -0.902344 9.839844 -1.96875 Z M 51.742188 -13.777344 C 51.824219 -15.496094 51.496094 -16.5625 52.394531 -18.039062 C 52.558594 -17.875 52.640625 -17.21875 52.640625 -17.136719 L 52.640625 -13.285156 C 52.640625 -13.121094 52.558594 -12.300781 52.394531 -12.136719 C 52.394531 -12.136719 52.070312 -12.054688 51.988281 -11.972656 C 51.988281 -11.972656 51.824219 -11.398438 51.742188 -11.398438 C 51.742188 -11.234375 51.660156 -11.234375 51.660156 -11.398438 C 51.496094 -11.480469 51.496094 -12.300781 51.660156 -12.382812 C 51.660156 -12.546875 51.742188 -13.695312 51.742188 -13.777344 Z M 10.742188 -20.007812 C 10.742188 -20.089844 10.988281 -20.417969 10.988281 -20.417969 C 11.070312 -20.664062 11.316406 -21.566406 11.480469 -21.8125 L 11.808594 -21.8125 L 9.59375 -14.023438 L 9.59375 -15.988281 C 9.757812 -16.152344 10.496094 -19.023438 10.742188 -20.007812 Z M 15.496094 -35.09375 C 15.90625 -36.488281 17.382812 -39.6875 17.382812 -39.851562 L 17.628906 -40.097656 C 17.628906 -39.851562 17.300781 -38.949219 17.300781 -38.703125 C 17.21875 -38.703125 16.808594 -37.882812 16.808594 -37.882812 C 16.644531 -37.308594 15.824219 -34.765625 15.660156 -34.355469 L 15.25 -33.863281 L 15.25 -34.109375 C 15.25 -34.355469 15.496094 -35.09375 15.496094 -35.09375 Z M 22.140625 -50.019531 L 18.53125 -42.230469 L 18.53125 -42.476562 C 18.777344 -43.046875 19.269531 -44.441406 19.269531 -44.523438 L 23.371094 -52.640625 C 23.125 -51.824219 22.632812 -50.675781 22.140625 -50.019531 Z M 52.886719 -21.566406 L 53.132812 -21.566406 L 53.132812 -21.320312 C 53.132812 -20.910156 52.804688 -18.859375 52.640625 -18.449219 C 52.640625 -18.449219 52.558594 -18.859375 52.394531 -18.941406 L 52.394531 -19.1875 C 52.558594 -19.84375 52.886719 -21.566406 52.886719 -21.566406 Z M 12.628906 -25.582031 C 12.628906 -25.582031 12.710938 -25.910156 12.792969 -26.074219 L 12.792969 -25.582031 C 12.710938 -25.335938 12.21875 -24.105469 12.136719 -23.777344 L 12.136719 -24.1875 C 12.136719 -24.351562 12.464844 -25.335938 12.628906 -25.582031 Z M 13.859375 -30.09375 C 13.941406 -29.765625 13.941406 -29.191406 13.613281 -28.945312 L 13.53125 -28.945312 L 13.53125 -29.191406 C 13.53125 -29.355469 13.613281 -29.847656 13.859375 -30.09375 Z M 14.511719 -32.226562 C 14.675781 -32.144531 14.675781 -31.488281 14.347656 -31.324219 L 14.347656 -31.570312 C 14.347656 -31.652344 14.511719 -32.144531 14.511719 -32.226562 Z M 18.367188 -41.902344 C 18.449219 -41.410156 18.203125 -41 17.875 -40.753906 L 17.875 -41 C 17.957031 -41.082031 18.367188 -41.65625 18.367188 -41.902344 Z M 68.058594 -62.5625 L 67.8125 -62.5625 L 68.058594 -63.054688 Z M 51.742188 -8.117188 L 51.660156 -8.117188 L 51.660156 -9.101562 Z M 13.53125 -28.042969 L 13.285156 -27.796875 L 13.285156 -28.042969 Z M 13.53125 -28.042969 "/></g></g></g><g fill="#1488db" fill-opacity="1"><g transform="translate(214.487324, 206.059381)"><g><path d="M 36.570312 -2.460938 C 36.652344 -2.460938 37.308594 -2.214844 37.472656 -2.214844 C 38.785156 -2.214844 40.015625 -2.953125 40.589844 -4.101562 C 40.179688 -4.753906 39.03125 -6.640625 38.375 -7.214844 C 38.292969 -7.214844 37.800781 -7.542969 37.71875 -7.625 C 37.554688 -7.789062 37.144531 -8.773438 36.980469 -8.9375 C 36.980469 -9.019531 36.160156 -9.511719 36.160156 -9.59375 C 36.078125 -9.59375 35.996094 -10.085938 35.996094 -10.085938 C 35.832031 -10.167969 35.011719 -10.824219 35.011719 -10.988281 C 34.929688 -11.070312 34.273438 -12.382812 34.109375 -12.710938 C 34.109375 -12.957031 33.78125 -14.105469 33.699219 -14.265625 C 33.535156 -14.511719 32.390625 -16.480469 32.390625 -16.726562 C 32.144531 -17.300781 31.40625 -20.171875 31.242188 -20.746094 C 31.242188 -20.992188 31.242188 -22.304688 31.242188 -22.550781 C 31.160156 -22.796875 30.585938 -24.023438 30.339844 -24.269531 C 30.257812 -25.007812 29.765625 -28.289062 29.683594 -29.027344 C 29.519531 -30.914062 29.519531 -36.570312 29.683594 -37.0625 L 31.488281 -45.507812 C 32.0625 -46.328125 31.980469 -46.820312 31.734375 -47.722656 C 31.734375 -47.722656 31.488281 -47.722656 31.488281 -47.722656 C 31.160156 -47.558594 30.996094 -46.902344 30.996094 -46.574219 L 30.832031 -46.574219 C 30.832031 -46.65625 30.832031 -46.820312 30.832031 -46.820312 C 30.832031 -47.230469 30.996094 -48.378906 30.996094 -48.378906 L 37.472656 -66.417969 L 37.882812 -66.664062 L 37.882812 -66.171875 C 37.882812 -66.089844 37.144531 -63.792969 36.734375 -62.890625 C 36.734375 -62.726562 36.160156 -61.742188 36.160156 -61.582031 C 36.078125 -61.335938 35.75 -60.105469 35.75 -60.023438 C 34.847656 -58.710938 32.554688 -52.886719 32.554688 -51.988281 L 32.554688 -51.25 C 32.71875 -51.167969 32.964844 -51.414062 32.964844 -51.496094 L 36.570312 -60.925781 C 36.652344 -60.925781 36.980469 -61.5 36.980469 -61.582031 C 37.308594 -62.316406 38.949219 -65.84375 39.277344 -66.664062 C 39.851562 -67.8125 41.328125 -67.566406 42.394531 -68.222656 L 42.148438 -68.714844 L 51.660156 -71.335938 C 51.824219 -71.335938 51.90625 -71.335938 51.90625 -71.335938 C 52.476562 -71.5 55.019531 -71.910156 55.511719 -72.074219 C 55.675781 -72.15625 56.25 -72.402344 56.414062 -72.730469 L 62.726562 -73.796875 C 63.136719 -74.125 63.875 -74.125 64.203125 -74.699219 L 66.253906 -75.109375 L 66.5 -75.355469 L 72.730469 -76.75 C 73.140625 -76.75 73.46875 -76.75 73.878906 -76.75 C 74.207031 -76.75 76.011719 -77.242188 76.503906 -77.324219 C 76.585938 -77.40625 77.324219 -77.652344 77.40625 -77.816406 L 86.671875 -79.867188 C 86.835938 -79.867188 87.164062 -79.949219 87.164062 -80.113281 C 87.246094 -80.113281 87.984375 -80.195312 88.066406 -80.277344 C 88.230469 -80.277344 88.886719 -80.847656 88.96875 -80.847656 C 89.132812 -81.011719 89.953125 -81.09375 90.035156 -81.09375 C 91.753906 -81.914062 92.984375 -83.308594 93.722656 -84.867188 C 93.804688 -85.277344 93.394531 -85.441406 93.230469 -85.605469 C 93.148438 -85.6875 92.984375 -86.015625 92.984375 -86.015625 C 92.65625 -86.015625 91.097656 -86.015625 90.6875 -86.015625 C 90.523438 -86.015625 88.230469 -85.605469 87.820312 -85.605469 C 87.738281 -85.605469 86.835938 -85.605469 86.671875 -85.605469 C 84.375 -85.359375 82.570312 -85.03125 80.277344 -84.703125 C 80.195312 -84.703125 79.949219 -84.703125 79.785156 -84.703125 L 67.730469 -82.980469 C 67.648438 -82.980469 67.648438 -82.980469 67.566406 -82.980469 C 66.992188 -82.980469 66.335938 -82.734375 65.679688 -82.734375 C 65.597656 -82.734375 65.433594 -82.734375 65.351562 -82.734375 L 50.921875 -79.867188 C 50.921875 -79.867188 50.675781 -79.867188 50.675781 -79.867188 C 50.183594 -79.703125 46.65625 -79.046875 46.164062 -78.964844 C 46.082031 -78.964844 46 -78.882812 45.917969 -78.882812 C 45.589844 -78.882812 45.261719 -79.128906 45.015625 -79.375 C 44.441406 -79.949219 44.195312 -80.847656 43.539062 -81.339844 C 42.3125 -82.242188 40.671875 -83.144531 39.113281 -83.144531 C 38.210938 -83.144531 37.308594 -82.734375 36.570312 -81.832031 L 31.816406 -75.355469 L 0 -62.644531 C 0 -62.644531 0 -62.070312 0 -61.742188 C 0 -61.335938 0.410156 -59.449219 0.492188 -59.039062 C 0.820312 -57.316406 1.640625 -56.578125 2.871094 -55.265625 C 3.445312 -54.773438 4.429688 -54.527344 5.246094 -54.527344 C 5.492188 -54.527344 5.738281 -54.527344 5.984375 -54.609375 C 6.148438 -54.691406 6.804688 -55.265625 6.886719 -55.265625 C 7.132812 -55.429688 7.871094 -55.511719 8.035156 -55.511719 L 25.171875 -62.644531 C 25.253906 -62.644531 25.417969 -62.644531 25.417969 -62.644531 C 25.5 -62.644531 25.664062 -62.398438 25.664062 -62.398438 L 24.105469 -57.316406 L 21.074219 -34.929688 C 20.664062 -32.882812 21.484375 -30.832031 21.074219 -28.78125 L 23.453125 -19.023438 C 23.941406 -18.121094 25.746094 -13.695312 26.074219 -12.710938 C 26.238281 -12.382812 26.894531 -9.265625 26.976562 -8.9375 C 27.714844 -6.96875 30.011719 -3.9375 32.144531 -3.363281 C 32.636719 -3.199219 35.421875 -2.625 35.996094 -2.460938 C 35.996094 -2.460938 36.570312 -2.460938 36.570312 -2.460938 Z M 38.128906 -4.675781 C 37.554688 -5 37.882812 -6.148438 37.226562 -6.722656 C 37.308594 -6.804688 37.390625 -6.804688 37.554688 -6.804688 C 38.046875 -6.804688 38.375 -5.820312 38.621094 -5.574219 C 38.621094 -5.574219 38.949219 -5.328125 39.03125 -5.328125 C 39.277344 -5.246094 39.441406 -5 39.277344 -4.675781 C 39.195312 -4.511719 39.03125 -4.429688 38.949219 -4.429688 C 38.621094 -4.429688 38.292969 -4.675781 38.128906 -4.675781 Z M 36.40625 -8.445312 C 36.570312 -8.445312 36.570312 -7.953125 36.40625 -7.953125 C 36.160156 -7.953125 36.160156 -8.445312 36.40625 -8.445312 Z M 34.355469 -10.742188 C 34.601562 -10.742188 34.601562 -10.25 34.355469 -10.25 C 34.109375 -10.25 34.109375 -10.742188 34.355469 -10.742188 Z M 33.699219 -11.234375 C 33.699219 -11.234375 33.699219 -11.316406 33.699219 -11.398438 C 33.863281 -11.316406 34.027344 -11.070312 33.863281 -10.988281 C 33.863281 -10.988281 33.699219 -11.070312 33.699219 -11.234375 Z M 32.71875 -12.21875 L 30.09375 -20.5 C 30.09375 -20.746094 30.257812 -21.074219 30.339844 -21.15625 C 30.421875 -20.992188 30.914062 -19.925781 30.996094 -19.597656 C 30.996094 -19.433594 31.242188 -18.449219 31.242188 -18.285156 C 31.570312 -17.054688 32.308594 -15.578125 32.71875 -14.511719 C 32.554688 -13.53125 33.78125 -12.710938 33.453125 -11.644531 Z M 29.4375 -23.042969 C 29.273438 -23.125 28.535156 -27.386719 28.371094 -29.027344 C 28.289062 -29.355469 28.289062 -32.472656 28.371094 -33.453125 C 28.371094 -33.78125 28.535156 -35.339844 28.617188 -35.667969 L 28.699219 -35.667969 C 28.863281 -35.667969 28.945312 -35.09375 28.945312 -34.765625 C 28.945312 -34.765625 28.945312 -34.601562 28.945312 -34.601562 C 28.945312 -34.355469 28.699219 -32.800781 28.699219 -32.554688 C 28.699219 -31.980469 28.699219 -29.601562 28.699219 -29.027344 C 28.863281 -28.863281 28.945312 -28.453125 28.945312 -28.289062 C 29.109375 -28.207031 28.945312 -27.46875 28.945312 -27.386719 C 28.945312 -27.386719 29.191406 -27.058594 29.191406 -27.058594 C 29.273438 -26.730469 29.765625 -23.941406 29.847656 -23.617188 C 30.011719 -23.371094 30.667969 -22.550781 30.09375 -22.304688 Z M 30.339844 -44.851562 C 30.421875 -45.179688 30.585938 -45.753906 30.832031 -46.246094 C 30.914062 -45.507812 30.667969 -44.933594 30.339844 -44.359375 C 30.339844 -44.523438 30.339844 -44.6875 30.339844 -44.851562 Z M 30.339844 -44.851562 "/></g></g></g><g fill="#1488db" fill-opacity="1"><g transform="translate(28.032256, 129.781062)"><g><path d="M 3.328125 -0.300781 C 3.601562 -0.300781 3.871094 -0.390625 4.109375 -0.570312 C 4.171875 -0.628906 4.558594 -1.019531 4.621094 -1.078125 C 4.648438 -1.078125 4.859375 -1.230469 4.859375 -1.230469 C 4.921875 -1.289062 5.160156 -1.769531 5.191406 -1.828125 C 5.21875 -1.859375 5.578125 -2.191406 5.609375 -2.25 C 5.910156 -2.578125 6.058594 -3.03125 6.210938 -3.480469 C 6.210938 -3.511719 6.210938 -3.539062 6.210938 -3.570312 L 7.109375 -4.648438 C 7.171875 -5.039062 7.46875 -5.339844 7.589844 -5.730469 C 7.621094 -5.761719 7.679688 -5.878906 7.679688 -5.878906 C 7.949219 -6.210938 8.339844 -6.511719 8.429688 -6.960938 C 8.609375 -7.140625 9.238281 -8.070312 9.328125 -8.28125 C 9.421875 -8.429688 9.691406 -9.300781 9.75 -9.539062 C 9.75 -9.539062 9.808594 -10.171875 9.839844 -10.441406 C 9.871094 -10.648438 9.628906 -10.890625 9.421875 -10.949219 C 9.390625 -10.949219 9.359375 -10.949219 9.328125 -10.949219 C 9.269531 -10.949219 9.238281 -10.921875 9.179688 -10.859375 C 9.089844 -10.710938 8.761719 -10.078125 8.671875 -9.929688 C 8.671875 -9.898438 8.609375 -9.75 8.609375 -9.691406 L 6.449219 -5.398438 L 4.199219 -2.488281 L 3.628906 -2.070312 L 3.539062 -2.070312 C 3.511719 -2.070312 3.269531 -2.820312 3.210938 -3.148438 C 3.210938 -3.238281 3.148438 -4.050781 3.121094 -4.320312 C 3.121094 -4.558594 3.121094 -5.671875 3.121094 -5.878906 C 3.121094 -5.941406 3.210938 -6.390625 3.210938 -6.449219 C 3.210938 -6.78125 3.210938 -8.28125 3.210938 -8.609375 C 3.390625 -9.089844 3.449219 -9.601562 3.390625 -10.109375 L 3.871094 -13.5 C 3.839844 -13.769531 3.871094 -14.191406 3.960938 -14.429688 C 3.960938 -14.429688 4.109375 -14.640625 4.109375 -14.671875 C 4.140625 -14.699219 4.199219 -14.878906 4.199219 -14.910156 C 4.199219 -14.96875 4.199219 -15.449219 4.199219 -15.511719 C 4.230469 -15.539062 4.441406 -16.019531 4.46875 -16.078125 C 4.46875 -16.109375 4.46875 -16.378906 4.46875 -16.410156 C 4.46875 -16.46875 4.53125 -16.769531 4.53125 -16.828125 C 4.621094 -17.070312 4.769531 -17.21875 4.710938 -17.488281 C 4.738281 -17.761719 5.101562 -19.109375 5.191406 -19.378906 C 4.949219 -18.75 6.988281 -23.761719 7.441406 -24.121094 C 7.53125 -24.691406 7.050781 -25.679688 6.089844 -25.679688 C 5.640625 -25.679688 5.128906 -25.5 4.53125 -25.019531 C 4.050781 -24.601562 2.609375 -23.609375 1.558594 -19.648438 L 0.0585938 -14.011719 L 0.0585938 -13.921875 L -0.601562 -8.519531 C -0.660156 -7.949219 -0.570312 -7.199219 -0.511719 -6.628906 C -0.511719 -6.628906 -0.511719 -6.539062 -0.511719 -6.539062 C -0.421875 -5.910156 -0.179688 -4.320312 -0.179688 -4.320312 C -0.0898438 -3.960938 0.539062 -2.460938 0.71875 -2.160156 C 1.109375 -1.679688 2.640625 -0.300781 3.328125 -0.300781 Z M 2.789062 -2.308594 C 2.789062 -2.339844 2.789062 -2.460938 2.789062 -2.488281 C 2.878906 -2.339844 3.179688 -2.398438 3.210938 -2.25 C 3.210938 -2.191406 3.210938 -1.890625 3.210938 -1.828125 L 2.96875 -1.828125 C 2.96875 -1.828125 2.851562 -2.160156 2.789062 -2.308594 Z M 3.058594 -2.578125 C 3.03125 -2.578125 3.03125 -2.699219 3.058594 -2.730469 C 3.148438 -2.699219 3.148438 -2.578125 3.121094 -2.488281 C 3.121094 -2.488281 3.058594 -2.550781 3.058594 -2.578125 Z M 2.699219 -2.640625 C 2.789062 -2.640625 2.789062 -2.488281 2.699219 -2.488281 C 2.640625 -2.488281 2.640625 -2.640625 2.699219 -2.640625 Z M 2.460938 -3.148438 C 2.460938 -3.238281 2.460938 -3.628906 2.460938 -3.71875 C 2.699219 -3.78125 2.398438 -4.171875 2.640625 -4.230469 C 2.671875 -4.199219 2.699219 -4.019531 2.699219 -3.988281 C 2.730469 -3.808594 2.730469 -3 2.699219 -2.820312 L 2.640625 -2.820312 C 2.609375 -2.820312 2.488281 -3.058594 2.460938 -3.148438 Z M 2.96875 -4.230469 C 3.058594 -4.230469 3.058594 -4.050781 2.96875 -4.050781 C 2.878906 -4.050781 2.878906 -4.230469 2.96875 -4.230469 Z M 2.550781 -4.378906 C 2.640625 -4.378906 2.640625 -4.230469 2.550781 -4.230469 C 2.460938 -4.230469 2.460938 -4.378906 2.550781 -4.378906 Z M 2.550781 -5.550781 C 2.550781 -5.578125 2.640625 -5.761719 2.640625 -5.789062 C 2.640625 -5.910156 2.609375 -6.78125 2.640625 -6.871094 C 2.671875 -7.410156 2.761719 -7.921875 2.789062 -8.460938 C 2.789062 -8.488281 2.789062 -8.910156 2.789062 -8.941406 C 2.851562 -9.539062 3.03125 -11.011719 3.058594 -11.011719 L 3.121094 -11.101562 C 3.179688 -10.078125 3 -9.058594 2.96875 -8.039062 C 2.96875 -7.980469 2.96875 -7.589844 2.96875 -7.53125 C 2.96875 -7.378906 2.878906 -6.121094 2.878906 -5.96875 C 2.851562 -5.488281 3 -4.890625 2.550781 -4.558594 C 2.550781 -4.710938 2.550781 -5.398438 2.550781 -5.550781 Z M 3.121094 -11.429688 C 3.148438 -11.578125 3.269531 -12.210938 3.300781 -12.359375 C 3.328125 -12.03125 3.328125 -11.640625 3.121094 -11.339844 C 3.121094 -11.371094 3.121094 -11.429688 3.121094 -11.429688 Z M 3.390625 -13.769531 C 3.421875 -13.949219 3.601562 -14.429688 3.628906 -14.429688 L 3.71875 -14.429688 C 3.71875 -14.398438 3.71875 -14.21875 3.71875 -14.160156 C 3.660156 -13.769531 3.628906 -13.171875 3.390625 -12.75 C 3.359375 -12.898438 3.359375 -13.621094 3.390625 -13.769531 Z M 3.78125 -14.910156 C 3.871094 -14.910156 3.871094 -14.761719 3.78125 -14.761719 C 3.71875 -14.761719 3.71875 -14.910156 3.78125 -14.910156 Z M 3.78125 -15.421875 L 4.289062 -17.308594 C 4.320312 -17.371094 4.410156 -17.429688 4.46875 -17.398438 C 4.53125 -17.128906 4.378906 -17.070312 4.289062 -16.828125 C 4.109375 -16.289062 4.078125 -15.570312 3.78125 -15.089844 Z M 4.53125 -17.96875 C 4.621094 -17.96875 4.621094 -17.820312 4.53125 -17.820312 C 4.46875 -17.820312 4.46875 -17.96875 4.53125 -17.96875 Z M 4.53125 -17.96875 "/></g></g></g><g fill="#1488db" fill-opacity="1"><g transform="translate(37.092245, 129.781062)"><g><path d="M -0.71875 -10.738281 C -0.660156 -10.5 -0.71875 -10.378906 -0.691406 -10.140625 C -0.691406 -9.988281 -0.628906 -8.640625 -0.628906 -8.460938 C -0.480469 -7.171875 0.628906 -4.769531 2.128906 -4.769531 C 2.160156 -4.800781 2.429688 -4.859375 2.488281 -4.859375 C 2.488281 -4.859375 2.699219 -4.800781 2.730469 -4.769531 C 2.761719 -4.769531 2.941406 -4.769531 2.941406 -4.769531 C 3.089844 -4.800781 3.359375 -4.859375 3.390625 -4.859375 C 3.449219 -4.890625 3.75 -5.21875 3.71875 -5.28125 C 3.75 -5.308594 3.929688 -5.488281 3.988281 -5.519531 C 4.140625 -5.609375 4.378906 -5.609375 4.46875 -5.730469 C 4.46875 -5.761719 4.679688 -5.941406 4.679688 -5.96875 C 4.710938 -5.96875 4.921875 -6.089844 4.949219 -6.121094 C 4.980469 -6.121094 4.980469 -6.179688 4.980469 -6.210938 C 5.011719 -6.210938 5.128906 -6.539062 5.160156 -6.570312 C 5.21875 -6.660156 5.851562 -7.261719 5.878906 -7.378906 C 5.941406 -7.558594 6.960938 -8.398438 6.960938 -8.578125 C 6.988281 -8.609375 7.019531 -8.730469 7.050781 -8.761719 C 7.078125 -8.761719 7.230469 -8.878906 7.230469 -8.910156 C 7.589844 -9.328125 8.460938 -11.578125 8.460938 -12.269531 C 8.488281 -12.449219 8.398438 -12.601562 8.28125 -12.75 C 8.191406 -12.75 7.828125 -12.660156 7.738281 -12.601562 C 7.710938 -12.601562 7.589844 -12.511719 7.589844 -12.480469 C 7.351562 -12 6.871094 -10.679688 6.628906 -10.199219 C 6.628906 -10.171875 6.570312 -10.078125 6.570312 -10.050781 L 3.78125 -7.199219 C 3.78125 -7.109375 3.78125 -6.988281 3.691406 -6.929688 C 3.628906 -6.960938 3.390625 -6.960938 3.210938 -6.960938 C 3.148438 -6.960938 3.121094 -6.960938 3.089844 -6.960938 C 3.058594 -6.960938 2.820312 -6.839844 2.820312 -6.839844 C 2.789062 -6.839844 2.609375 -6.839844 2.578125 -6.839844 L 2.460938 -7.53125 L 2.878906 -10.261719 C 2.851562 -10.351562 2.519531 -10.679688 2.851562 -10.679688 C 2.910156 -10.679688 2.96875 -10.648438 3.03125 -10.648438 L 3.960938 -14.488281 L 3.898438 -14.789062 L 4.050781 -16.109375 L 3.75 -16.109375 C 3.78125 -16.140625 3.808594 -16.289062 3.808594 -16.320312 C 3.75 -16.46875 3.660156 -17.011719 3.628906 -17.101562 C 3.628906 -17.128906 3.390625 -17.460938 3.328125 -17.519531 C 3.238281 -17.578125 2.820312 -17.941406 2.730469 -18 C 2.671875 -18.058594 2.308594 -18.511719 2.25 -18.539062 C 2.25 -18.570312 2.191406 -18.628906 2.160156 -18.628906 L 1.320312 -18.628906 L -0.691406 -11.488281 L -0.71875 -10.890625 Z M 1.921875 -6.75 C 1.621094 -7.648438 1.859375 -8.550781 2.070312 -9.328125 C 2.101562 -9.449219 2.128906 -9.628906 2.28125 -9.660156 L 2.339844 -9.511719 C 2.28125 -9.238281 2.160156 -8.011719 2.191406 -7.738281 C 2.160156 -7.589844 2.28125 -6.78125 2.339844 -6.601562 C 2.28125 -6.539062 2.21875 -6.421875 2.039062 -6.449219 C 2.011719 -6.511719 1.921875 -6.691406 1.921875 -6.75 Z M 2.429688 -10.261719 C 2.488281 -10.261719 2.488281 -10.109375 2.429688 -10.109375 C 2.339844 -10.109375 2.339844 -10.261719 2.429688 -10.261719 Z M 2.820312 -10.859375 C 2.820312 -11.011719 2.878906 -11.339844 2.878906 -11.339844 L 2.941406 -11.339844 C 2.941406 -11.308594 2.96875 -11.191406 2.96875 -11.160156 C 2.941406 -11.101562 2.851562 -10.828125 2.820312 -10.800781 C 2.820312 -10.800781 2.820312 -10.859375 2.820312 -10.859375 Z M 3.058594 -11.820312 C 3.058594 -11.851562 3.089844 -11.910156 3.089844 -11.910156 C 3.179688 -11.789062 3.148438 -11.429688 2.96875 -11.429688 C 2.941406 -11.429688 2.910156 -11.429688 2.878906 -11.460938 C 2.910156 -11.550781 3.058594 -11.761719 3.058594 -11.820312 Z M 2.699219 -11.699219 C 2.761719 -11.699219 2.789062 -11.640625 2.730469 -11.640625 C 2.699219 -11.640625 2.671875 -11.699219 2.699219 -11.699219 Z M 2.941406 -12.421875 C 3 -12.421875 3 -12.359375 2.941406 -12.359375 C 2.878906 -12.390625 2.878906 -12.480469 2.941406 -12.421875 Z M 2.941406 -12.988281 C 3 -13.289062 3.300781 -13.589844 3.328125 -13.890625 C 3.300781 -13.921875 3.300781 -14.308594 3.300781 -14.339844 C 3.269531 -14.371094 3.421875 -14.460938 3.421875 -14.488281 C 3.601562 -14.878906 3.359375 -15.570312 3.71875 -15.871094 C 3.75 -15.839844 3.75 -15.75 3.71875 -15.71875 C 3.75 -15.539062 3.75 -15.089844 3.78125 -15.03125 C 3.71875 -14.761719 3.449219 -13.589844 3.328125 -13.351562 C 3.300781 -13.351562 3.210938 -13.230469 3.238281 -13.199219 C 3.210938 -13.109375 3.058594 -12.75 3.03125 -12.691406 C 3 -12.691406 2.96875 -12.929688 2.941406 -12.988281 Z M 3.871094 -20.371094 C 3.960938 -20.371094 4.019531 -20.398438 4.050781 -20.398438 C 4.199219 -20.429688 4.648438 -20.488281 4.769531 -20.519531 C 5.191406 -20.640625 5.070312 -21.058594 5.429688 -21.238281 L 6.449219 -22.980469 L 6.328125 -24.238281 C 6.179688 -24.269531 6.210938 -24.390625 6.058594 -24.511719 C 5.878906 -24.71875 5.578125 -24.871094 5.160156 -24.871094 C 5.128906 -24.898438 4.921875 -24.839844 4.949219 -24.808594 L 3.71875 -24.089844 L 1.949219 -20.96875 L 1.980469 -20.910156 C 1.980469 -20.878906 2.488281 -20.671875 2.761719 -20.550781 C 2.761719 -20.519531 2.941406 -20.519531 2.941406 -20.519531 C 3.179688 -20.429688 3.601562 -20.371094 3.871094 -20.371094 Z M 3.871094 -20.371094 "/></g></g></g><g fill="#1488db" fill-opacity="1"><g transform="translate(44.472242, 129.781062)"><g><path d="M 6.359375 -3.960938 C 6.449219 -3.929688 7.078125 -3.78125 7.289062 -3.71875 C 7.289062 -3.71875 7.351562 -3.71875 7.351562 -3.71875 C 7.621094 -3.75 8.851562 -3.871094 9.089844 -3.898438 C 9.359375 -3.929688 9.480469 -4.078125 9.691406 -4.230469 C 9.71875 -4.230469 10.050781 -4.441406 10.109375 -4.46875 C 10.199219 -4.53125 10.710938 -5.070312 10.828125 -5.21875 C 10.859375 -5.25 10.980469 -5.429688 11.011719 -5.460938 C 11.070312 -5.519531 11.609375 -5.96875 11.671875 -6.03125 C 11.699219 -6.058594 11.878906 -6.421875 11.910156 -6.449219 C 11.941406 -6.480469 12.148438 -6.691406 12.179688 -6.691406 C 12.179688 -6.71875 12.238281 -6.839844 12.238281 -6.871094 C 12.269531 -6.898438 12.328125 -6.929688 12.328125 -6.960938 C 12.359375 -6.960938 12.480469 -7.019531 12.511719 -7.019531 C 12.71875 -7.230469 12.660156 -7.558594 12.898438 -7.710938 C 12.929688 -7.710938 13.140625 -7.769531 13.171875 -7.769531 C 13.199219 -7.800781 13.378906 -8.011719 13.410156 -8.039062 C 13.441406 -8.039062 13.558594 -8.101562 13.589844 -8.101562 C 13.648438 -8.160156 13.921875 -8.460938 13.980469 -8.519531 C 14.28125 -8.851562 14.398438 -9.179688 14.730469 -9.449219 C 14.878906 -9.660156 15.511719 -10.769531 15.660156 -11.011719 C 15.808594 -11.339844 15.871094 -11.640625 15.808594 -12 C 15.808594 -12.058594 15.75 -12.179688 15.71875 -12.179688 L 15.328125 -12.179688 L 11.339844 -7.378906 L 7.769531 -4.800781 C 7.679688 -4.738281 7.46875 -4.679688 7.289062 -4.679688 C 6.871094 -4.679688 6.390625 -4.828125 6.539062 -5.21875 L 8.101562 -9.359375 L 8.101562 -9.449219 L 9.511719 -12.660156 C 9.808594 -12.929688 9.78125 -13.410156 9.929688 -13.738281 C 9.960938 -13.769531 10.078125 -13.980469 10.109375 -14.011719 C 10.230469 -14.28125 10.800781 -15.601562 10.921875 -15.898438 C 10.949219 -15.929688 11.070312 -16.019531 11.101562 -16.078125 C 11.160156 -16.171875 11.609375 -16.890625 11.671875 -16.980469 C 11.671875 -16.980469 11.761719 -17.039062 11.761719 -17.070312 C 12.058594 -17.578125 12.238281 -18.210938 12.570312 -18.71875 C 12.601562 -18.75 12.660156 -18.871094 12.660156 -18.898438 C 12.691406 -19.019531 12.808594 -19.648438 12.839844 -19.800781 C 12.570312 -20.640625 11.878906 -20.96875 11.101562 -21.03125 C 11.070312 -21.058594 10.949219 -21.058594 10.859375 -21.058594 C 10.769531 -21.058594 10.710938 -21.058594 10.679688 -21.03125 C 10.441406 -21 9.75 -20.761719 9.691406 -20.699219 L 7.441406 -19.289062 L 3.808594 -15.058594 C 3.871094 -14.96875 3.628906 -14.820312 3.628906 -14.820312 L 2.070312 -11.910156 C 2.011719 -11.761719 1.800781 -11.070312 1.738281 -10.921875 C 1.5 -10.441406 0.871094 -9.148438 0.808594 -9.121094 L 0.71875 -9.03125 C 0.71875 -9.03125 0.71875 -9.089844 0.71875 -9.121094 C 0.75 -9.148438 0.871094 -9.539062 0.898438 -9.601562 C 0.898438 -9.691406 0.960938 -10.019531 0.988281 -10.109375 L 2.21875 -13.648438 C 2.191406 -13.800781 2.28125 -14.039062 2.308594 -14.160156 C 2.371094 -14.339844 2.640625 -15.03125 2.730469 -15.148438 C 2.730469 -15.179688 2.878906 -15.390625 2.878906 -15.421875 C 2.941406 -15.539062 3.03125 -16.171875 3.058594 -16.320312 C 3.058594 -16.320312 3.121094 -16.378906 3.148438 -16.410156 C 3.269531 -16.589844 3.601562 -17.160156 3.628906 -17.21875 C 3.660156 -17.28125 3.78125 -17.761719 3.808594 -17.820312 C 3.929688 -18.210938 4.378906 -19.078125 4.199219 -19.558594 C 4.171875 -19.648438 3.871094 -20.128906 3.808594 -20.21875 C 3.71875 -20.308594 2.96875 -20.578125 2.789062 -20.640625 C 2.789062 -20.640625 2.730469 -20.640625 2.730469 -20.640625 C 2.640625 -20.578125 2.308594 -20.429688 2.21875 -20.371094 C 2.21875 -20.371094 2.160156 -20.308594 2.128906 -20.28125 C 2.039062 -20.160156 1.828125 -19.828125 1.800781 -19.800781 L -1.019531 -12.511719 L -1.921875 -7.710938 L -1.921875 -5.640625 C -1.921875 -5.28125 -1.621094 -4.949219 -1.410156 -4.710938 C -1.410156 -4.710938 -1.351562 -4.648438 -1.351562 -4.621094 C -1.230469 -4.589844 -0.71875 -4.351562 -0.601562 -4.289062 C -0.601562 -4.289062 -0.539062 -4.289062 -0.511719 -4.289062 C -0.449219 -4.320312 0 -4.441406 0.0585938 -4.46875 C 0.0898438 -4.46875 0.121094 -4.46875 0.179688 -4.46875 C 0.210938 -4.46875 0.269531 -4.46875 0.300781 -4.46875 C 0.449219 -4.46875 0.601562 -4.5 0.660156 -4.621094 C 0.71875 -5.671875 1.351562 -6.390625 1.558594 -7.378906 C 1.621094 -7.621094 1.53125 -8.070312 1.800781 -8.28125 L 2.878906 -10.859375 L 5.039062 -14.398438 C 5.28125 -14.609375 5.609375 -14.910156 5.699219 -15.238281 L 8.011719 -17.640625 C 8.550781 -17.878906 8.820312 -18.449219 9.359375 -18.71875 C 9.390625 -18.75 9.480469 -18.75 9.511719 -18.71875 L 9.511719 -18.628906 L 5.128906 -8.28125 C 5.101562 -8.21875 4.921875 -6.929688 4.890625 -6.449219 C 4.859375 -6.300781 4.859375 -5.789062 4.890625 -5.699219 C 4.921875 -5.550781 5.21875 -4.921875 5.28125 -4.800781 C 5.339844 -4.738281 5.851562 -4.289062 6.03125 -4.140625 C 6.089844 -4.109375 6.300781 -3.988281 6.359375 -3.960938 Z M 7.859375 -17.96875 C 7.949219 -17.96875 7.949219 -17.820312 7.859375 -17.820312 C 7.769531 -17.820312 7.769531 -17.96875 7.859375 -17.96875 Z M 11.339844 -20.128906 C 11.339844 -20.070312 11.28125 -20.070312 11.25 -20.128906 C 11.25 -20.191406 11.371094 -20.191406 11.339844 -20.128906 Z M 11.339844 -20.128906 "/></g></g></g><g fill="#1488db" fill-opacity="1"><g transform="translate(59.172223, 129.781062)"><g><path d="M -0.300781 -1.828125 C -0.148438 -1.710938 0 -1.679688 0.148438 -1.679688 C 0.449219 -1.679688 0.691406 -1.859375 0.960938 -2.070312 C 1.050781 -2.550781 0.628906 -3.089844 0.628906 -3.148438 L 2.460938 -10.199219 C 2.429688 -10.261719 2.429688 -10.621094 2.460938 -10.679688 C 2.460938 -10.710938 2.578125 -10.828125 2.609375 -10.859375 C 2.640625 -10.859375 2.699219 -10.859375 2.699219 -10.859375 L 3.539062 -8.789062 C 3.628906 -8.730469 3.660156 -8.519531 3.691406 -8.460938 C 4.289062 -7.589844 5.160156 -6.511719 6 -5.878906 C 6.210938 -5.761719 7.140625 -5.28125 7.351562 -5.21875 C 8.011719 -5.21875 8.671875 -5.21875 9.328125 -5.308594 C 9.390625 -5.339844 9.660156 -5.519531 9.75 -5.550781 C 9.78125 -5.550781 10.199219 -5.550781 10.230469 -5.550781 C 10.5 -5.578125 10.800781 -5.789062 10.980469 -5.96875 L 12.390625 -6.449219 C 12.421875 -6.449219 12.660156 -6.628906 12.71875 -6.71875 C 13.050781 -7.019531 13.921875 -7.890625 13.980469 -7.949219 L 16.199219 -11.011719 C 16.230469 -11.039062 16.289062 -11.339844 16.289062 -11.429688 C 16.289062 -11.460938 16.230469 -11.550781 16.199219 -11.578125 C 15.988281 -11.878906 15.78125 -12.03125 15.570312 -12.03125 C 15.328125 -12.03125 15.089844 -11.820312 14.96875 -11.429688 L 13.289062 -9.03125 C 13.171875 -8.519531 10.859375 -7.140625 10.410156 -6.960938 C 10.171875 -6.839844 9.570312 -6.78125 9.058594 -6.78125 C 8.730469 -6.78125 8.460938 -6.808594 8.339844 -6.871094 L 7.019531 -7.621094 L 5.429688 -9.601562 L 5.339844 -9.78125 L 3.898438 -11.789062 L 7.679688 -13.5 L 7.828125 -13.5 C 8.25 -13.5 9.660156 -14.96875 9.898438 -15.238281 C 10.019531 -15.269531 10.261719 -15.359375 10.320312 -15.480469 L 10.890625 -17.070312 C 10.921875 -17.101562 10.921875 -17.851562 10.890625 -18.148438 C 10.890625 -18.328125 10.828125 -18.929688 10.828125 -18.960938 C 10.769531 -19.171875 10.410156 -19.859375 10.320312 -19.949219 C 10.171875 -20.128906 9.421875 -20.761719 9.238281 -20.878906 C 8.878906 -20.96875 8.488281 -21.058594 8.101562 -21.058594 C 7.738281 -21.058594 7.378906 -21 7.078125 -20.789062 C 7.050781 -20.761719 6.660156 -20.398438 6.601562 -20.371094 C 6.539062 -20.339844 6 -20.25 5.941406 -20.21875 C 5.851562 -20.191406 5.578125 -20.011719 5.519531 -19.949219 L 5.519531 -20.128906 L 6.421875 -22.769531 C 6.421875 -22.800781 6.421875 -22.859375 6.421875 -22.859375 C 6.421875 -22.890625 6.511719 -23.011719 6.511719 -23.039062 C 6.539062 -23.128906 6.71875 -23.851562 6.75 -24.03125 C 6.75 -24.03125 6.75 -24.089844 6.75 -24.121094 C 6.570312 -23.96875 6.390625 -23.609375 6.328125 -23.460938 L 5.191406 -19.558594 C 5.160156 -19.46875 4.949219 -19.320312 4.859375 -19.289062 C 4.859375 -19.320312 4.859375 -19.378906 4.859375 -19.378906 C 4.921875 -19.679688 5.070312 -20.488281 5.101562 -20.550781 C 5.128906 -20.640625 5.398438 -21.300781 5.429688 -21.359375 C 5.460938 -21.449219 5.578125 -22.050781 5.609375 -22.109375 C 5.609375 -22.140625 5.671875 -22.261719 5.671875 -22.289062 L 6.421875 -24.78125 C 6.539062 -24.898438 6.570312 -25.230469 6.601562 -25.351562 C 6.601562 -25.589844 6.601562 -26.609375 6.601562 -26.851562 C 6.570312 -26.878906 6.539062 -27.058594 6.511719 -27.089844 C 6.421875 -27.269531 6.058594 -27.839844 6 -27.929688 C 5.96875 -27.988281 5.730469 -28.171875 5.671875 -28.171875 C 5.550781 -28.171875 5.191406 -28.171875 5.101562 -28.078125 C 5.039062 -28.050781 4.890625 -27.898438 4.859375 -27.839844 C 4.710938 -27.601562 4.140625 -26.429688 4.019531 -26.191406 C 3.960938 -26.070312 3.660156 -25.050781 3.601562 -24.929688 C 3.601562 -24.898438 3.539062 -24.808594 3.539062 -24.78125 L -1.558594 -4.890625 L -0.960938 -2.398438 C -0.929688 -2.339844 -0.480469 -1.949219 -0.300781 -1.828125 Z M 3.449219 -13.410156 C 3.449219 -13.441406 3.449219 -13.558594 3.449219 -13.589844 C 3.480469 -13.738281 3.601562 -14.191406 3.601562 -14.25 C 3.660156 -14.371094 4.019531 -15.058594 4.109375 -15.238281 C 4.109375 -15.269531 4.261719 -15.390625 4.261719 -15.421875 C 4.53125 -15.871094 4.289062 -16.289062 4.679688 -16.738281 C 4.738281 -16.769531 4.949219 -16.890625 5.011719 -16.890625 L 6.421875 -18.390625 C 6.449219 -18.480469 6.628906 -18.898438 6.660156 -18.960938 C 6.691406 -18.988281 6.75 -19.050781 6.75 -19.050781 C 6.871094 -19.109375 7.738281 -19.648438 7.828125 -19.710938 C 7.921875 -19.769531 8.039062 -19.949219 8.160156 -19.890625 C 8.21875 -19.859375 8.519531 -19.679688 8.578125 -19.621094 C 8.609375 -19.621094 8.671875 -19.558594 8.671875 -19.558594 C 8.671875 -19.441406 8.671875 -18.929688 8.671875 -18.808594 C 8.609375 -18.480469 8.308594 -17.371094 8.25 -17.21875 C 8.101562 -16.890625 7.410156 -15.839844 7.261719 -15.75 L 5.101562 -14.011719 L 3.539062 -13.261719 L 3.359375 -13.261719 C 3.390625 -13.289062 3.421875 -13.378906 3.449219 -13.410156 Z M 5.761719 -21.449219 C 5.851562 -21.449219 5.851562 -21.300781 5.761719 -21.300781 C 5.671875 -21.300781 5.671875 -21.449219 5.761719 -21.449219 Z M 6.089844 -22.378906 C 6.179688 -22.378906 6.179688 -22.199219 6.089844 -22.199219 C 6 -22.199219 6 -22.378906 6.089844 -22.378906 Z M 6.089844 -22.378906 "/></g></g></g><g fill="#1488db" fill-opacity="1"><g transform="translate(74.292213, 129.781062)"><g><path d="M 0.898438 -4.980469 C 1.230469 -4.980469 1.558594 -5.101562 1.890625 -5.160156 C 1.980469 -5.160156 2.851562 -5.308594 2.96875 -5.308594 C 3 -5.308594 3.421875 -5.308594 3.449219 -5.308594 C 3.511719 -5.308594 3.75 -5.371094 3.78125 -5.398438 C 4.289062 -5.609375 5.550781 -6.179688 5.609375 -6.210938 L 9.328125 -8.878906 L 9.421875 -9.03125 L 12 -11.789062 C 12 -11.789062 12 -11.910156 12 -11.941406 C 12.148438 -12.269531 12.808594 -12.988281 12.75 -13.351562 C 12.71875 -13.5 12.601562 -13.859375 12.570312 -13.859375 L 12.089844 -13.859375 L 8.339844 -9.628906 C 8.191406 -9.511719 7.980469 -9.359375 7.859375 -9.210938 L 4.378906 -6.960938 C 4.320312 -6.929688 2.941406 -6.691406 2.371094 -6.628906 C 2.25 -6.601562 2.160156 -6.601562 2.039062 -6.601562 C 1.738281 -6.601562 1.46875 -6.691406 1.230469 -6.898438 L 1.140625 -6.71875 C 0.960938 -6.78125 1.140625 -6.839844 1.050781 -6.960938 C 1.050781 -6.988281 0.898438 -7.050781 0.898438 -7.050781 C 0.871094 -7.050781 0.808594 -7.109375 0.808594 -7.140625 C 0.75 -7.289062 0.570312 -7.980469 0.570312 -8.128906 C 0.539062 -8.21875 0.539062 -8.550781 0.570312 -8.640625 L 1.050781 -11.101562 C 1.050781 -11.160156 1.171875 -11.371094 1.230469 -11.429688 C 1.441406 -11.761719 1.890625 -11.550781 2.21875 -11.699219 C 2.339844 -11.761719 2.910156 -12.089844 3.03125 -12.179688 C 3.121094 -12.238281 3.570312 -12.71875 3.628906 -12.78125 C 3.660156 -12.808594 4.078125 -12.898438 4.109375 -12.929688 C 4.441406 -13.109375 5.429688 -13.679688 5.519531 -13.769531 C 5.761719 -13.949219 6.628906 -14.878906 6.78125 -15.089844 C 6.78125 -15.121094 6.839844 -15.238281 6.871094 -15.269531 C 6.898438 -15.328125 7.199219 -15.601562 7.261719 -15.660156 L 8.519531 -17.578125 C 8.519531 -17.578125 8.699219 -18.300781 8.761719 -18.570312 C 8.761719 -18.601562 8.761719 -18.660156 8.761719 -18.660156 L 8.25 -19.980469 C 8.191406 -20.160156 7.710938 -20.371094 7.53125 -20.398438 C 7.46875 -20.398438 6.871094 -20.460938 6.691406 -20.488281 C 6.660156 -20.488281 6.539062 -20.488281 6.511719 -20.488281 C 6.269531 -20.429688 5.128906 -20.28125 4.859375 -20.21875 C 4.828125 -20.21875 4.738281 -20.160156 4.710938 -20.160156 C 4.679688 -20.128906 4.46875 -20.070312 4.441406 -20.070312 C 4.109375 -19.859375 3.121094 -19.289062 3.03125 -19.230469 C 2.878906 -19.109375 1.769531 -18.058594 1.46875 -17.730469 C 1.410156 -17.699219 1.109375 -17.21875 1.050781 -17.160156 C 1.050781 -17.160156 0.988281 -17.101562 0.960938 -17.070312 C 0.960938 -17.039062 0.75 -16.769531 0.71875 -16.738281 C 0.71875 -16.738281 0.660156 -16.679688 0.628906 -16.679688 C 0.359375 -16.199219 0.179688 -15.839844 -0.121094 -15.328125 C -0.121094 -15.328125 -0.179688 -15.269531 -0.179688 -15.269531 C -0.421875 -14.789062 -0.601562 -14.28125 -0.839844 -13.859375 C -0.871094 -13.800781 -0.988281 -13.558594 -1.019531 -13.53125 C -1.019531 -13.5 -1.019531 -13.378906 -1.019531 -13.351562 C -1.019531 -13.320312 -1.078125 -13.140625 -1.109375 -13.109375 C -1.171875 -12.960938 -1.320312 -12.691406 -1.351562 -12.511719 C -1.351562 -12.511719 -1.351562 -12.300781 -1.351562 -12.269531 C -1.5 -11.519531 -1.738281 -10.800781 -1.679688 -10.050781 C -1.679688 -9.929688 -1.621094 -9 -1.589844 -8.878906 C -1.558594 -8.25 -1.46875 -7.589844 -1.171875 -7.050781 C -1.019531 -6.75 -0.511719 -5.878906 -0.449219 -5.820312 C -0.179688 -5.460938 0.421875 -4.980469 0.898438 -4.980469 Z M 6.121094 -7.050781 C 6.210938 -7.230469 6.601562 -7.289062 6.78125 -7.289062 L 6.121094 -6.960938 C 6.089844 -6.988281 6.089844 -7.050781 6.121094 -7.050781 Z M 1.710938 -12.929688 C 1.738281 -12.988281 1.828125 -13.199219 1.890625 -13.261719 L 3.71875 -15.75 C 3.78125 -15.808594 5.128906 -17.519531 5.789062 -18.421875 C 5.789062 -18.449219 6.421875 -19.019531 6.691406 -19.230469 C 6.75 -19.289062 7.171875 -19.53125 7.261719 -19.558594 C 7.558594 -19.558594 7.679688 -19.410156 7.769531 -19.078125 C 7.890625 -18.300781 7.558594 -17.609375 7.109375 -17.011719 C 7.140625 -16.890625 7.140625 -16.621094 6.929688 -16.679688 L 4.949219 -14.429688 L 1.980469 -12.601562 L 1.710938 -12.511719 C 1.710938 -12.601562 1.710938 -12.871094 1.710938 -12.929688 Z M 6.691406 -15.929688 C 6.78125 -15.929688 6.78125 -15.75 6.691406 -15.75 C 6.601562 -15.75 6.601562 -15.929688 6.691406 -15.929688 Z M 4.050781 -16.679688 C 4.230469 -16.949219 4.589844 -17.398438 4.949219 -17.398438 C 4.859375 -17.128906 4.109375 -16.378906 3.871094 -16.320312 C 3.898438 -16.378906 4.019531 -16.621094 4.050781 -16.679688 Z M 5.128906 -17.730469 L 5.191406 -17.730469 L 5.128906 -17.671875 Z M 5.128906 -17.730469 "/></g></g></g><g fill="#1488db" fill-opacity="1"><g transform="translate(85.062202, 129.781062)"><g><path d="M 8.671875 -4.980469 C 8.820312 -4.890625 9.089844 -4.859375 9.390625 -4.859375 C 9.839844 -4.859375 10.351562 -4.949219 10.589844 -5.128906 C 10.710938 -5.25 11.371094 -5.820312 11.488281 -5.96875 C 11.550781 -6.058594 11.699219 -6.480469 11.910156 -6.480469 C 11.941406 -6.480469 11.96875 -6.480469 12 -6.449219 L 13.980469 -8.789062 C 13.980469 -8.820312 14.039062 -9 14.070312 -9.03125 C 14.128906 -9.210938 14.550781 -9.628906 14.460938 -9.691406 C 14.429688 -9.71875 14.25 -9.78125 14.21875 -9.78125 C 14.308594 -9.960938 14.699219 -10.710938 14.789062 -10.859375 C 14.851562 -10.921875 15.179688 -11.21875 15.210938 -11.28125 C 15.238281 -11.308594 15.359375 -11.640625 15.390625 -11.699219 C 15.421875 -11.730469 15.691406 -11.96875 15.71875 -12.03125 C 15.75 -12.058594 15.601562 -12.390625 15.628906 -12.511719 C 15.660156 -12.628906 15.871094 -12.929688 15.871094 -13.078125 C 15.871094 -13.171875 15.808594 -13.589844 15.808594 -13.679688 C 15.78125 -13.738281 15.691406 -13.769531 15.628906 -13.769531 C 15.539062 -13.738281 15.421875 -13.679688 15.390625 -13.589844 C 15.210938 -13.320312 14.640625 -12.390625 14.550781 -12.269531 C 14.550781 -12.238281 14.488281 -12.058594 14.460938 -12.03125 L 12.71875 -9.121094 L 10.589844 -6.808594 L 9.75 -6.300781 C 9.71875 -6.269531 9.691406 -6.269531 9.660156 -6.269531 C 9.480469 -6.269531 9.449219 -6.660156 9.328125 -6.539062 L 9.328125 -6.058594 C 9.328125 -6.03125 9.269531 -6.03125 9.238281 -6.058594 C 9.03125 -6.210938 8.910156 -6.359375 8.910156 -6.628906 L 8.910156 -8.371094 L 9.089844 -8.371094 C 9.089844 -8.371094 9.148438 -8.789062 9.179688 -8.941406 C 9.179688 -8.96875 9.179688 -9.179688 9.179688 -9.210938 C 9.179688 -9.421875 9.238281 -10.078125 9.238281 -10.109375 C 9.328125 -10.46875 9.71875 -12.148438 9.839844 -12.511719 L 9.839844 -11.429688 C 9.871094 -11.519531 10.050781 -12 10.078125 -12.089844 C 10.078125 -12.148438 10.078125 -12.539062 10.078125 -12.601562 C 10.109375 -12.75 10.320312 -13.949219 10.320312 -14.101562 C 10.351562 -14.191406 10.320312 -15.121094 10.320312 -15.238281 C 10.351562 -15.570312 10.589844 -17.011719 10.648438 -17.308594 C 10.769531 -17.460938 10.800781 -17.761719 10.828125 -17.910156 L 12.570312 -22.289062 C 12.601562 -22.351562 12.660156 -22.410156 12.71875 -22.378906 L 12.71875 -22.289062 L 10.738281 -15.511719 C 10.738281 -15.480469 10.738281 -15.421875 10.738281 -15.421875 C 10.738281 -15.359375 10.679688 -15.210938 10.648438 -15.179688 C 10.589844 -14.789062 10.378906 -12.988281 10.320312 -12.601562 C 10.320312 -12.539062 10.320312 -12.238281 10.320312 -12.179688 L 11.070312 -15.660156 C 11.070312 -15.691406 11.070312 -15.808594 11.070312 -15.839844 C 11.070312 -15.839844 10.980469 -15.898438 10.980469 -15.898438 C 10.980469 -15.960938 10.980469 -16.140625 10.980469 -16.171875 L 12.570312 -20.878906 C 12.539062 -20.941406 12.539062 -21.179688 12.570312 -21.210938 C 12.570312 -21.238281 12.691406 -21.300781 12.71875 -21.300781 C 12.78125 -21.480469 12.988281 -22.289062 13.050781 -22.46875 C 13.078125 -22.53125 13.378906 -23.070312 13.378906 -23.128906 C 13.410156 -23.128906 13.378906 -23.28125 13.378906 -23.28125 C 13.46875 -23.429688 13.648438 -23.429688 13.558594 -23.609375 C 13.648438 -23.789062 14.128906 -24.601562 14.21875 -24.78125 C 14.21875 -24.808594 14.28125 -24.839844 14.308594 -24.871094 C 14.308594 -24.871094 14.460938 -24.929688 14.460938 -24.960938 C 14.761719 -25.140625 14.578125 -25.441406 14.460938 -25.679688 L 14.25 -25.46875 L 14.730469 -26.519531 C 14.730469 -26.550781 14.730469 -26.640625 14.730469 -26.699219 C 14.699219 -26.761719 14.640625 -27 14.640625 -27.03125 C 14.550781 -27.179688 14.101562 -27.929688 13.980469 -28.078125 C 13.828125 -28.289062 13.710938 -28.378906 13.46875 -28.441406 C 13.441406 -28.441406 13.378906 -28.441406 13.320312 -28.441406 C 13.199219 -28.441406 13.050781 -28.441406 12.988281 -28.351562 L 11.488281 -26.519531 L 9.570312 -22.53125 C 9.511719 -21.988281 9.148438 -21.539062 8.910156 -21.058594 C 8.820312 -20.878906 8.429688 -20.011719 8.339844 -19.800781 C 8.308594 -19.800781 8.25 -19.738281 8.25 -19.710938 C 8.21875 -19.679688 8.101562 -19.199219 8.101562 -19.140625 C 8.039062 -18.988281 7.980469 -18.570312 7.828125 -18.480469 C 7.769531 -18.480469 7.558594 -18.601562 7.5 -18.660156 C 7.5 -18.660156 7.351562 -18.960938 7.351562 -18.988281 C 7.199219 -19.230469 6.539062 -19.410156 6.148438 -19.410156 C 6.058594 -19.410156 6 -19.410156 5.941406 -19.378906 C 5.851562 -19.378906 5.039062 -19.078125 4.949219 -19.050781 C 4.921875 -19.050781 4.859375 -19.050781 4.859375 -19.050781 C 4.769531 -19.050781 4.53125 -18.988281 4.53125 -18.988281 C 4.289062 -18.839844 3.480469 -18.390625 3.359375 -18.328125 C 3.148438 -18.148438 2.160156 -17.28125 1.949219 -17.070312 C 1.859375 -16.921875 1.769531 -16.769531 1.621094 -16.648438 L -0.121094 -13.769531 L -1.441406 -9.960938 C -1.46875 -9.871094 -1.46875 -9.058594 -1.441406 -8.789062 C -1.441406 -8.671875 -1.320312 -8.039062 -1.261719 -7.859375 C -1.199219 -7.589844 -1.078125 -7.140625 -0.871094 -6.871094 C -0.71875 -6.71875 -0.328125 -6.328125 -0.269531 -6.300781 C -0.148438 -6.210938 0.570312 -5.910156 0.71875 -5.878906 C 0.988281 -5.820312 3.058594 -6.628906 3.269531 -6.808594 L 5.101562 -8.28125 C 5.550781 -8.339844 5.550781 -8.730469 5.761719 -9.03125 C 5.878906 -9.210938 5.96875 -9.300781 6.089844 -9.300781 C 6.148438 -9.300781 6.238281 -9.238281 6.269531 -9.03125 C 6.269531 -8.941406 6.421875 -8.21875 6.421875 -8.128906 C 6.628906 -7.410156 6.929688 -6.78125 7.261719 -6.121094 C 7.378906 -5.96875 8.011719 -5.339844 8.160156 -5.21875 C 8.21875 -5.21875 8.398438 -5.160156 8.429688 -5.128906 C 8.460938 -5.128906 8.640625 -4.980469 8.671875 -4.980469 Z M 1.050781 -7.140625 C 1.019531 -7.230469 1.019531 -7.679688 1.050781 -7.800781 C 1.078125 -7.949219 1.289062 -8.878906 1.378906 -9.121094 C 1.441406 -9.328125 1.621094 -9.75 1.800781 -9.960938 L 2.28125 -11.429688 C 2.28125 -11.460938 2.28125 -11.578125 2.28125 -11.609375 C 2.339844 -11.789062 2.519531 -12.300781 2.550781 -12.359375 C 2.578125 -12.449219 3.058594 -13.078125 3.121094 -13.171875 C 3.148438 -13.230469 3.269531 -13.558594 3.269531 -13.589844 C 3.300781 -13.621094 3.511719 -13.890625 3.539062 -13.921875 C 3.75 -14.25 3.71875 -14.488281 4.019531 -14.820312 C 4.050781 -14.851562 4.261719 -14.96875 4.289062 -15 C 4.378906 -15.121094 4.859375 -15.691406 4.949219 -15.839844 C 5.460938 -16.019531 5.21875 -16.710938 5.699219 -16.980469 C 5.878906 -17.101562 6.75 -17.640625 6.929688 -17.730469 C 6.929688 -17.460938 6.929688 -16.199219 6.929688 -15.898438 C 6.929688 -15.871094 6.988281 -15.449219 7.019531 -15.421875 C 7.019531 -15.390625 7.019531 -15.269531 7.019531 -15.238281 C 6.988281 -15.121094 6.929688 -14.789062 6.929688 -14.761719 C 6.871094 -14.578125 6.601562 -13.769531 6.511719 -13.589844 C 6.511719 -13.53125 6.511719 -13.320312 6.511719 -13.261719 C 6.449219 -12.660156 6.210938 -11.101562 6.179688 -11.011719 L 6.089844 -10.769531 L 2.21875 -7.199219 C 2.160156 -7.171875 1.679688 -6.929688 1.53125 -6.871094 C 1.46875 -6.839844 1.410156 -6.839844 1.378906 -6.839844 C 1.230469 -6.839844 1.078125 -6.929688 1.050781 -7.140625 Z M 12.808594 -8.371094 C 12.871094 -8.460938 12.960938 -8.578125 13.078125 -8.578125 C 13.078125 -8.578125 13.109375 -8.550781 13.140625 -8.550781 C 13.109375 -8.371094 12.929688 -8.21875 12.808594 -8.128906 C 12.808594 -8.160156 12.808594 -8.339844 12.808594 -8.371094 Z M 14.070312 -10.199219 C 14.128906 -10.199219 14.128906 -10.019531 14.070312 -10.019531 C 13.980469 -10.019531 13.980469 -10.199219 14.070312 -10.199219 Z M 9.898438 -13.078125 L 9.898438 -12.75 L 9.839844 -12.75 Z M 10.171875 -14.160156 C 10.261719 -14.160156 10.261719 -14.011719 10.171875 -14.011719 C 10.078125 -14.011719 10.078125 -14.160156 10.171875 -14.160156 Z M 10.921875 -15.839844 C 10.980469 -15.839844 10.980469 -15.660156 10.921875 -15.660156 C 10.828125 -15.660156 10.828125 -15.839844 10.921875 -15.839844 Z M 12.808594 -22.710938 C 12.898438 -22.710938 12.898438 -22.53125 12.808594 -22.53125 C 12.71875 -22.53125 12.71875 -22.710938 12.808594 -22.710938 Z M 12.988281 -23.128906 C 13.050781 -23.128906 13.050781 -22.949219 12.988281 -22.949219 C 12.898438 -22.949219 12.898438 -23.128906 12.988281 -23.128906 Z M 13.140625 -23.609375 C 13.140625 -23.640625 13.5 -24.269531 13.648438 -24.539062 C 13.648438 -24.539062 13.710938 -24.601562 13.738281 -24.601562 L 13.738281 -24.539062 L 13.140625 -23.371094 Z M 13.800781 -24.871094 C 13.890625 -24.871094 13.890625 -24.691406 13.800781 -24.691406 C 13.738281 -24.691406 13.738281 -24.871094 13.800781 -24.871094 Z M 14.128906 -25.351562 L 14.21875 -25.351562 C 14.25 -25.289062 14.191406 -25.230469 14.128906 -25.199219 Z M 14.128906 -25.351562 "/></g></g></g></svg>